<?xml version="1.0" standalone="yes"?>
<svg width="309" height="281">
<path style="fill:#ffffff; stroke:none;" d="M0 0L0 281L309 281L309 0L0 0z"/>
<path style="fill:#acadd2; stroke:none;" d="M100 11C106.619 13.7773 116.727 10 124 10C116.424 6.82098 107.819 10.9732 100 11M167 9C174.449 12.1255 185.925 11 194 11C186.652 7.91656 174.992 9 167 9z"/>
<path style="fill:#2f3191; stroke:none;" d="M100 12L100 20L89 20L89 27L77 27L77 35L65 35L65 42L52 42L52 51L46 51L46 61L41 61C40.936 68.0725 39.3426 70.913 32 71L32 137C37.5893 137 54.5489 134.188 57.9722 139.318C60.6541 143.337 58.5568 150.594 58 155L30 156L32 214L35 214L35 227L47 227L47 241L59 241L59 249C65.0034 249 71.8229 247.619 73 255C80.7006 255.001 84.8976 255.332 85 264L98 264L98 270C102.239 270 106.518 269.362 110 272C136.538 265.682 167.823 271 195 271L195 266L209 266L209 258L223 258L223 249L235 249L235 242L246 242L246 234L255 234C255.862 228.594 258.993 228.059 264 228L264 219L267 219L267 211L270 211L272 178C275.434 177.962 277.94 177.592 281 176C279.785 170.895 282.157 160.624 278.972 156.603C276.975 154.082 271.803 155 269 155C262.739 155 245.224 158.018 240.603 153.397C237.61 150.403 236.802 136.504 241.148 134.603C251.303 130.161 270.896 134 282 134L284 119C277.225 118.483 269.267 118.662 267 111C262.516 111.73 259.109 111.773 255 114C256.391 120.377 261.756 118.974 267 118L268 129C261.603 126.592 256.016 121.767 249 121.104L234.603 123.083C231.922 121.402 231.293 112.945 231 110C234.644 110.894 237.908 113.374 241.831 112.721C252.18 110.998 255.214 99.5336 264 97C264.32 107.848 268.859 109.102 278 112L278 105C269.555 104.348 271 96.6283 271 90C265.349 90.0037 257.381 89.0859 252.039 90.6667C243.988 93.0495 237.476 99.8631 229 102L236 77C229.429 77.499 226.992 86.7956 221.99 86.7932C218.235 86.7914 216.916 80.7908 215.009 78.4591C209.202 71.3572 199.189 69.3766 196 60C205.874 59.6728 213.913 47.6296 216 39L228 49C213.59 49.4676 201.454 76.0706 222 70L223 71L220 77C228.829 76.7924 234.288 71.2318 242 68L242 61C254.906 68.0214 243.054 78.6948 242 89C248.94 86.8145 253.314 85.8477 254 78L263 86L263 75L256 75L256 60L247 60L247 45L235 45L235 32L221 32L221 21L208 21L208 12L100 12z"/>
<path style="fill:#373662; stroke:none;" d="M124 10C129.216 12.1889 136.381 11 142 11L180 11C174.784 8.81107 167.619 10 162 10L124 10z"/>
<path style="fill:#6f709b; stroke:none;" d="M194 11C198.217 12.7693 203.459 12 208 12C203.783 10.2307 198.541 11 194 11z"/>
<path style="fill:#acadd2; stroke:none;" d="M208 11L208 20L222 20L222 31C226.815 19.5243 217.649 19 209 19L208 11M88 19L88 26L77 26C80.6975 27.5515 85.0168 27 89 27L88 19z"/>
<path style="fill:#6f709b; stroke:none;" d="M89 19C92.4324 20.4403 96.2998 20 100 20C96.5676 18.5597 92.7002 19 89 19z"/>
<path style="fill:#373662; stroke:none;" d="M208 20C211.959 21.6611 216.737 21 221 21L221 32L235 32L235 45C236.769 40.7835 236 35.5412 236 31L222 31L222 20L208 20z"/>
<path style="fill:#444031; stroke:none;" d="M134 21C139.715 23.3979 147.831 22 154 22C148.285 19.6021 140.169 21 134 21z"/>
<path style="fill:#ece25e; stroke:none;" d="M134 22L134 24C141.449 23.4178 147.329 24.3293 154 28L152 24L156 24C150.364 20.1497 140.625 22 134 22z"/>
<path style="fill:#faed24; stroke:none;" d="M138 23C140.789 31.9367 141.62 42.6008 137 51L147 51C144.549 46.544 144.004 43.0362 144 38C150.865 41.269 153.9 48.8172 162 50L153 38C157.974 33.2776 161.984 24.7893 152 24C153.916 28.7961 148.788 40.3578 144.029 33.642C142.029 30.8212 143.607 26.1127 144 23L138 23z"/>
<path style="fill:#444031; stroke:none;" d="M134 24C140.406 29.8687 138 40.9567 138 49C140.445 43.1735 141.598 25.268 134 24z"/>
<path style="fill:#ece25e; stroke:none;" d="M157 24L159 27L157 24z"/>
<path style="fill:#888358; stroke:none;" d="M144 25L144 30C144.83 27.9695 144.83 27.0305 144 25z"/>
<path style="fill:#444031; stroke:none;" d="M145 25L145 35L151 35L146 34L146 26L152 27C149.692 25.2405 147.908 25.0828 145 25z"/>
<path style="fill:#373662; stroke:none;" d="M179 50C183.523 44.5418 187.755 35.9847 189 29L186 26L195 29.4282C202.12 32.5118 212.662 42.7115 199.996 47.2423C196.162 48.6136 191.872 45.0654 188.394 47.071C185.366 48.8172 185.159 52.9424 185 56L187 56L188 48L198 48.9521C220.993 47.7864 197.226 17.572 186.617 26.0316C184.702 27.5586 185.381 30.8676 184.93 33L179 50z"/>
<path style="fill:#d3ce9a; stroke:none;" d="M139 26L139 48C141.219 42.7126 141.219 31.2874 139 26z"/>
<path style="fill:#ece25e; stroke:none;" d="M143 26L143 35C144.256 32.0059 144.256 28.9942 143 26z"/>
<path style="fill:#2f3191; stroke:none;" d="M146 26L146 34C151.31 33.8256 152.826 32.3101 153 27L146 26z"/>
<path style="fill:#ece25e; stroke:none;" d="M186 26L189 32L190 29C198.059 33.0081 203.864 45.1241 190 43L194 34C189.912 36.4353 189.173 40.6094 188 45C192.466 46.8195 196.144 47.9566 201 48L196 47C199.658 42.5674 200.98 39.7971 201 34C204.381 38.0113 204.831 40.1675 203 45C215.455 36.9252 191.945 27.4089 186 26z"/>
<path style="fill:#acadd2; stroke:none;" d="M76 27L76 34C77.0595 31.4657 77.0595 29.5343 76 27z"/>
<path style="fill:#373662; stroke:none;" d="M99 39C101.857 35.8344 104.257 32.2489 108.001 30.0093C129.33 17.2509 142.366 60.2329 115 58.8549C111.309 58.6691 108.186 56.6669 105 55C110.055 64.4804 128.151 62.0307 131 52C136.993 54.1404 147.318 56.6768 151 50C146.65 51.6669 139.833 53.7483 135.573 50.6821C131.033 47.4145 133.154 37.9401 129.811 33.1042C122.568 22.6259 100.061 24.9457 99 39z"/>
<path style="fill:#ece25e; stroke:none;" d="M159 27L155 37C158.354 34.3416 160.658 31.3021 159 27M106 55C103.266 48.9842 100.411 44.7715 102 38L105 46C107.664 38.5751 104.491 32.9046 115 31C114.35 29.7003 114.853 30 113 30L119 29C103.648 22.5604 91.8305 47.2211 106 55z"/>
<path style="fill:#888358; stroke:none;" d="M153 28L153 31C153.696 29.4463 153.696 29.5537 153 28z"/>
<path style="fill:#faed24; stroke:none;" d="M113 29C120.895 36.6548 125.904 41.3998 126 53C134.436 50.3353 131.245 37.5455 126.454 32.5293C122.834 28.7383 117.822 29.0032 113 29M190 29C187.552 34.8774 171.907 55.0349 184 56C185.691 50.1282 197.167 31.3651 190 29z"/>
<path style="fill:#acadd2; stroke:none;" d="M144 30L144 36L148 36L145 35L144 30z"/>
<path style="fill:#373662; stroke:none;" d="M111.019 31.939C99.6331 34.1843 107.79 57.4906 118.985 55.5617C132.637 53.2092 123.472 29.4834 111.019 31.939z"/>
<path style="fill:#444031; stroke:none;" d="M112 31L116 32L112 31z"/>
<path style="fill:#373662; stroke:none;" d="M159 32C157.164 34.4469 155.763 35.7005 153 37C156.392 42.4235 160.352 47.9742 167 49L167 52C161.673 51.9812 158.501 50.8313 154 48C155.574 51.756 167.364 56.7086 167.364 50.0756C167.364 46.657 160.424 44.1345 158.886 40.9954L159 32z"/>
<path style="fill:#2f3191; stroke:none;" d="M109.318 34.0278C101.403 39.2876 112.181 59.2023 121.276 52.6821C129.306 46.9258 118.356 28.0215 109.318 34.0278z"/>
<path style="fill:#444031; stroke:none;" d="M194 33L193 37C197.015 35.8812 198.344 36.9255 199 41C200.84 36.4504 198.45 33.9279 194 33z"/>
<path style="fill:#6f709b; stroke:none;" d="M65 34C68.6975 35.5515 73.0168 35 77 35C73.3025 33.4485 68.9832 34 65 34z"/>
<path style="fill:#faed24; stroke:none;" d="M201 34C200.933 39.6816 198.639 42.2726 196 47C203.888 46.4056 207.57 39.4726 201 34z"/>
<path style="fill:#ece25e; stroke:none;" d="M128 35L130 38L128 35z"/>
<path style="fill:#373662; stroke:none;" d="M190 43C204.713 46.3317 194.811 27.1475 190 43z"/>
<path style="fill:#444031; stroke:none;" d="M105 36L105 42C105.951 39.7147 105.951 38.2853 105 36z"/>
<path style="fill:#faed24; stroke:none;" d="M102 38C98.2309 50.7847 107.499 57.9987 119 58C110.93 52.7632 106.329 46.4025 102 38z"/>
<path style="fill:#d3ce9a; stroke:none;" d="M144 38L144 48C145.346 44.793 145.346 41.207 144 38z"/>
<path style="fill:#888358; stroke:none;" d="M145.667 38.3333L146.333 38.6667L145.667 38.3333M206 38L206 42C206.71 40.2405 206.71 39.7595 206 38z"/>
<path style="fill:#d3ce9a; stroke:none;" d="M99 39L99 45C99.9511 42.7147 99.9511 41.2853 99 39z"/>
<path style="fill:#444031; stroke:none;" d="M145 39C145 42.5094 144.218 46.5689 147 49L146 41L150 43C148.627 40.4527 147.782 39.8125 145 39z"/>
<path style="fill:#ece25e; stroke:none;" d="M216 39L215 40C217.034 47.5509 205.024 59.3967 198 61C200.007 68.002 209.924 74.9667 217 76C217.077 79.713 218.574 82.2031 221 85C225.761 79.6883 232.492 76.7095 239 74C236.322 81.9147 231.434 89.5523 231 98C241.074 97.4774 248.554 89.7211 258 87C257.388 83.618 256.433 81.4347 254 79C251.939 86.7318 239.292 94.1204 232 97C235.065 87.6559 240.857 80.1543 239 70C231.524 72.3658 224.445 80.5333 217 75C218.924 73.9988 219.098 73.9225 220 72C209.788 71.4477 206.383 66.2506 212 58C207.829 59.9686 205.71 62.4045 205 67L200 63C209.063 58.7734 212.937 48.2266 222 44L216 39z"/>
<path style="fill:#acadd2; stroke:none;" d="M51 41L51 50L46 50L52 51L52 42L65 42C60.7835 40.2307 55.5412 41 51 41M131 41L131 46C131.83 43.9695 131.83 43.0305 131 41z"/>
<path style="fill:#373662; stroke:none;" d="M215 41L215 46C216.516 43.8223 216.516 43.1778 215 41z"/>
<path style="fill:#ece25e; stroke:none;" d="M156 42C157.496 45.224 159.52 47.4474 162 50L154 47C157.617 51.343 161.679 50.9994 167 51L167 49C162.59 47.7627 159.695 44.5899 156 42z"/>
<path style="fill:#444031; stroke:none;" d="M150 43C151.104 45.3572 151.956 46.3762 154 48C152.896 45.6428 152.044 44.6238 150 43z"/>
<path style="fill:#faed24; stroke:none;" d="M200 63C201.624 65.0436 202.643 65.8965 205 67C207.574 57.8378 218.98 53.5167 222 44C212.785 46.5865 207.682 57.589 200 63z"/>
<path style="fill:#d3ce9a; stroke:none;" d="M222 44L217 52C220.523 49.8129 222.806 48.5342 227 49C225.676 46.3134 224.687 45.3241 222 44z"/>
<path style="fill:#acadd2; stroke:none;" d="M236 44C239.432 45.4403 243.3 45 247 45C243.568 43.5597 239.7 44 236 44z"/>
<path style="fill:#888358; stroke:none;" d="M188.667 45.3333L189.333 45.6667L188.667 45.3333z"/>
<path style="fill:#d3ce9a; stroke:none;" d="M201 47L204 45L201 47z"/>
<path style="fill:#acadd2; stroke:none;" d="M247 45L247 59C248.667 55.0279 248.667 48.9721 247 45z"/>
<path style="fill:#888358; stroke:none;" d="M81 46L85 47L81 46z"/>
<path style="fill:#ece25e; stroke:none;" d="M65 61C69.965 61.2115 86.8864 74.1894 82.534 79.6821C78.9993 84.1428 53.0521 83.9435 48.3904 80.9722C45.8008 79.3216 44.4961 75.5585 43 73C37.2005 80.4502 56.0116 91.7817 62 96C62.0048 92.0659 60.4928 89.9907 58 87L66 87C60.5896 84.7306 56.0244 87.0334 51 83C60.6728 83 75.3956 80.2148 84 85L89 79C83.4766 71.7195 76.1639 63.2351 68 59L72 55C73.5933 59.6832 76.1883 62.6455 81 64C81.9589 69.7238 87.3943 72.1192 90 77C97.6296 73.0421 106.885 63.4009 98 56C99.9325 60.9528 101.284 63.3591 98 68L98 64C92.1139 72.3289 89.9865 71.5747 82 66L87 62C85.9957 60.3932 85.8035 59.9649 86 58C76.2989 64.204 70.9625 53.2304 82 51L79 48L87 48C78.6051 44.4853 67.2574 53.0242 65 61z"/>
<path style="fill:#acadd2; stroke:none;" d="M227.333 47.6667L227.667 48.3333L227.333 47.6667z"/>
<path style="fill:#faed24; stroke:none;" d="M79 48C82.26 52.8174 86.3444 54.4619 85 61C91.2993 60.5599 96.2043 61.0647 98 68C104.436 61.6908 98.0505 56.084 91 56C90.5582 47.959 85.9359 48.0008 79 48z"/>
<path style="fill:#444031; stroke:none;" d="M211 48L211 50C212.635 49.4549 212.455 49.6352 213 48L211 48M211 69C208.283 61.2016 218.396 52.0799 225 49C218.282 46.9 201.533 64.1635 211 69M63 59C67.8118 56.7959 71.8693 53.2535 75 49C70.0474 50.9187 65.6549 54.3676 63 59z"/>
<path style="fill:#888358; stroke:none;" d="M135 49L138 50L135 49M146 49L149 50L146 49z"/>
<path style="fill:#ece25e; stroke:none;" d="M125 50C122.62 54.1143 119.666 55.5187 115 56L119 57L111 58C117.058 60.5411 123.201 57.8702 128 54L125 50z"/>
<path style="fill:#d3ce9a; stroke:none;" d="M135 50C137.755 53.1528 146.245 53.1528 149 50C144.086 50.9123 139.914 50.9123 135 50z"/>
<path style="fill:#acadd2; stroke:none;" d="M45 51L45 60C46.2561 57.0059 46.2561 53.9941 45 51z"/>
<path style="fill:#888358; stroke:none;" d="M78 51L83 52L78 51z"/>
<path style="fill:#444031; stroke:none;" d="M101 51L103 54L101 51z"/>
<path style="fill:#888358; stroke:none;" d="M158 51C160.89 52.2129 163.874 51.9983 167 52C164.11 50.7871 161.126 51.0017 158 51z"/>
<path style="fill:#ece25e; stroke:none;" d="M174 51C174.839 53.885 176.115 54.2891 179 55C177.535 52.7978 176.442 52.0469 174 51z"/>
<path style="fill:#444031; stroke:none;" d="M208 51L202 60C205.542 57.4969 208.159 54.9464 210 51L208 51z"/>
<path style="fill:#373662; stroke:none;" d="M82 62C73.0369 54.5932 82.6533 50.5568 84 59C91.2171 48.9078 64.4699 51.7144 77.9753 61.304L82 62z"/>
<path style="fill:#2f3191; stroke:none;" d="M77.3758 54.0324C73.8556 56.6062 79.2629 61.9821 82.3958 59.9136C86.4698 57.2237 81.3869 51.0996 77.3758 54.0324z"/>
<path style="fill:#888358; stroke:none;" d="M184.333 53.6667L184.667 54.3333L184.333 53.6667z"/>
<path style="fill:#373662; stroke:none;" d="M174 54C177.265 57.5456 181.273 58.5873 186 59C182.522 56.3678 178.287 54.7617 174 54z"/>
<path style="fill:#faed24; stroke:none;" d="M68 59C75.1003 64.4099 81.5359 75.2805 90 78C88.9845 71.9381 82.7402 69.7105 81 64C76.7496 62.0122 74.1527 59.1465 72 55C69.7511 56.1535 69.1536 56.7511 68 59z"/>
<path style="fill:#acadd2; stroke:none;" d="M92 55L97 56L92 55z"/>
<path style="fill:#d3ce9a; stroke:none;" d="M181 56L187 58C185.259 55.673 183.868 55.767 181 56M64 59L63 61L65 61C65 59.1468 65.2997 59.6498 64 59z"/>
<path style="fill:#6f709b; stroke:none;" d="M247 59C249.89 60.213 252.874 59.9983 256 60L256 74C257.876 69.5285 257 63.8167 257 59L247 59z"/>
<path style="fill:#acadd2; stroke:none;" d="M40 60L40 69C41.2561 66.0059 41.2561 62.9941 40 60z"/>
<path style="fill:#6f709b; stroke:none;" d="M41 60L46 61L41 60z"/>
<path style="fill:#444031; stroke:none;" d="M65 61C71.8034 65.3451 80.7382 71.9418 83 80C87.1312 73.6499 71.2709 60.114 65 61z"/>
<path style="fill:#888358; stroke:none;" d="M89 60L93 61L89 60z"/>
<path style="fill:#373662; stroke:none;" d="M102 60C101.269 73.3533 84.6837 78.2424 81 91C87.4518 84.6418 106.069 69.7231 102 60M196 60C198.248 61.3015 199.434 61.394 202 61L196 60z"/>
<path style="fill:#888358; stroke:none;" d="M63.6667 61.3333L64.3333 61.6667L63.6667 61.3333z"/>
<path style="fill:#373662; stroke:none;" d="M82 65L86.0586 69.8611C95.7714 78.1248 101.098 56.4408 87.0247 61.8341L82 65z"/>
<path style="fill:#d3ce9a; stroke:none;" d="M196 61L196 63L198 63L198 61L196 61z"/>
<path style="fill:#888358; stroke:none;" d="M242.667 61.3333L243.333 61.6667L242.667 61.3333z"/>
<path style="fill:#2f3191; stroke:none;" d="M85 64C89.3701 79.3838 101.617 57.0058 85 64z"/>
<path style="fill:#faed24; stroke:none;" d="M242 62C242.422 74.0052 234.7 85.3631 232 97C241.426 94.6853 252.214 67.6082 242 62z"/>
<path style="fill:#373662; stroke:none;" d="M244 62C249.082 73.1679 240.921 80.8391 239 92L244 90C239.514 80.8082 256.57 68.9684 244 62M197 63C198.154 65.2489 198.751 65.8465 201 67L197 63z"/>
<path style="fill:#888358; stroke:none;" d="M242 64L242 67C242.696 65.4463 242.696 65.5537 242 64z"/>
<path style="fill:#373662; stroke:none;" d="M201 67C204.487 72.7625 211.958 74.5336 215.598 80.1289C217.164 82.5366 218.376 87.3639 221.99 87.3642C225.415 87.3645 228.621 81.1318 231 79C225.738 78.1441 223.514 82.4049 223 87C220.293 83.7294 217.445 80.3225 217 76L201 67z"/>
<path style="fill:#444031; stroke:none;" d="M239.667 68.3333L240.333 68.6667L239.667 68.3333z"/>
<path style="fill:#acadd2; stroke:none;" d="M30 69L30 86C31.8826 81.5135 31.8826 73.4865 30 69z"/>
<path style="fill:#373662; stroke:none;" d="M31 69C31 90.6647 35.017 116.927 30 138L58 138C50.8314 134.992 39.761 137 32 137L32 71L40 71L40 69L31 69M146 70C157.229 74.7136 171.204 73.4758 183 78.4645C191.527 82.0707 196.63 89.8088 204 95C194.072 73.7104 166.774 70.0023 146 70z"/>
<path style="fill:#d3ce9a; stroke:none;" d="M218 71C220.176 72.3457 220.859 72.3808 223 71L218 71z"/>
<path style="fill:#444031; stroke:none;" d="M136 72C139.192 73.145 142.619 72.1448 146 72C142.667 70.6143 139.486 71.3531 136 72z"/>
<path style="fill:#888358; stroke:none;" d="M146 71C149.163 72.3274 152.586 71.9996 156 72C152.837 70.6726 149.414 71.0004 146 71z"/>
<path style="fill:#444031; stroke:none;" d="M214 71L218 72L214 71z"/>
<path style="fill:#373662; stroke:none;" d="M42 72C48.7458 84.7595 69.9304 81 83 81C73.5461 77.033 57.3184 79 47 79C46.2737 75.4273 45.242 73.6981 42 72z"/>
<path style="fill:#ece25e; stroke:none;" d="M129 75C133.508 76.5993 138.368 73.6713 143 73.1736C150.16 72.4043 157.942 72.8833 165 74.2454C182.132 77.5513 190.554 87.5282 204 97C191.326 69.8215 153.494 69.9444 129 75z"/>
<path style="fill:#373662; stroke:none;" d="M89 107C104.27 92.2079 112.893 77.3998 136 74C131.434 72.2222 126.494 74.8566 122 76.125C109.339 79.699 90.5071 92.4058 89 107z"/>
<path style="fill:#faed24; stroke:none;" d="M127 205C122.824 199.03 113.752 195.082 108 190.486C100.647 184.611 93.6172 174.103 90.9128 165C86.7352 150.938 84.6653 140.384 88.8495 126C92.2527 114.301 95.6934 106.409 103.29 96.9792C126.962 67.5941 177.399 71.1862 200.675 99C219.343 121.306 219.435 155.372 202.791 179C196.998 187.224 189.7 195.802 181 200.985C167.984 208.738 150.604 207 136 207C141.604 210.358 149.63 210 156 210C180.421 210.002 196.992 197.263 209.367 176.09C232.443 136.609 212.179 85.1632 167 74.4552C126.07 64.7543 83.422 93.7676 82.0432 137C81.4079 156.921 88.8381 174.332 101.576 189C108.126 196.543 116.501 204.455 127 205z"/>
<path style="fill:#373662; stroke:none;" d="M217 75C219.251 77.6523 220.522 78.3103 224 78L220 77L222 73L217 75M233 76L236 77L235 84C237.043 80.9232 238.15 77.5849 239 74L233 76M256 74L263 75L263 86L254 78L260 90C252.681 86.1594 233.712 95.5726 229 102C237.889 100.614 243.971 93.9494 252.039 91.044C257.093 89.2241 265.533 90.0151 271 90L271 103C272.769 98.7834 272 93.5412 272 89L264 89L264 74L256 74z"/>
<path style="fill:#acadd2; stroke:none;" d="M264 74L264 89L272 89L272 103C273.876 98.5286 273 92.8166 273 88L265 88C265 83.4588 265.769 78.2165 264 74z"/>
<path style="fill:#373662; stroke:none;" d="M40 75C38.8807 80.0824 41.502 82.8773 46 85L40 75z"/>
<path style="fill:#ece25e; stroke:none;" d="M134 78C140.598 80.6911 152.635 78 160 78C153.016 75.0696 141.338 76.6377 134 78z"/>
<path style="fill:#444031; stroke:none;" d="M140 78C146.687 80.8058 156.767 79 164 79C157.313 76.1942 147.233 78 140 78z"/>
<path style="fill:#d3ce9a; stroke:none;" d="M164 78L171 79L164 78z"/>
<path style="fill:#ece25e; stroke:none;" d="M104 96C113.556 90.0293 121.706 82.6827 133 80C124.056 76.5439 107.94 88.4458 104 96z"/>
<path style="fill:#373662; stroke:none;" d="M103 184C96.4157 168.114 87.8252 154.994 89.054 137C91.8638 95.8542 133.94 69.139 173 81.7647C183.937 85.3 190.986 94.6506 200 101C191.915 83.6634 172.045 79 155 79C134.722 79 117.988 81.5303 103.093 97.0394C86.9356 113.864 84.4391 144.047 92.054 165C94.5521 171.874 97.0795 179.417 103 184z"/>
<path style="fill:#444031; stroke:none;" d="M47 82L63 81C59.0105 79.326 50.0096 78.5559 47 82z"/>
<path style="fill:#2f3191; stroke:none;" d="M210 147C204.802 152.827 205.524 161.107 202.405 168C197.251 179.391 181.297 195.091 169 198.388C115.727 212.672 73.662 154.195 102.147 108.004C116.702 84.4006 154.555 75.1133 178.896 88.6073C197.671 99.0155 209.986 122.956 210 144L212 144C212 117.269 201.938 92.6067 175 82.1327C136.139 67.0229 90.5325 95.4003 89.0185 137C88.4045 153.871 93.9136 176.877 107.054 188.675C125.322 205.077 156.871 210.777 179.741 200.287C197.579 192.105 209.847 165.457 210 147z"/>
<path style="fill:#d3ce9a; stroke:none;" d="M49 81L57 82L49 81z"/>
<path style="fill:#888358; stroke:none;" d="M57 81L64 82L57 81z"/>
<path style="fill:#444031; stroke:none;" d="M64 81C69.2224 83.1914 76.3677 82 82 82C76.7776 79.8086 69.6323 81 64 81z"/>
<path style="fill:#ece25e; stroke:none;" d="M92 104L114 83C105.39 81.752 94.7075 96.9614 92 104z"/>
<path style="fill:#d3ce9a; stroke:none;" d="M222 82C221.701 84.3919 221.68 85.0435 223 87C223.165 84.7704 223.091 83.9275 222 82z"/>
<path style="fill:#373662; stroke:none;" d="M47 84C53.3842 90.9053 60.3115 98.5841 68 104C64.1796 95.8076 55.3434 89.3434 49 83L47 84z"/>
<path style="fill:#faed24; stroke:none;" d="M51 83C55.2274 88.0256 61.0999 85.5992 67 87C65.7036 89.9425 64.4413 91.9137 62 94C62.8387 96.6265 63.3735 97.1613 66 98C67.6778 93.9636 69.5496 90.3972 70 86L82 89L83 83L51 83z"/>
<path style="fill:#373662; stroke:none;" d="M132 87C151.965 84.3115 163.746 85.5415 183 92C176.511 82.2072 155.464 82.6377 145 83.0185C141.065 83.1617 134.615 83.9878 132 87z"/>
<path style="fill:#ece25e; stroke:none;" d="M181 83L184 85L181 83M100 115L114.09 98.6188C126.693 87.6201 143.943 85 160 85C139.532 76.4114 106.307 95.2079 100 115z"/>
<path style="fill:#faed24; stroke:none;" d="M130 193C122.561 184.882 112.158 180.45 106.904 170C92.9108 142.163 96.5829 105.838 129 92.2323C142.039 86.7595 154.371 88.4148 168 89C159.192 79.9715 138.09 86.0197 128 90.0039C97.4884 102.052 90.3797 130.538 98.4066 159C102.463 173.382 113.445 191.637 130 193z"/>
<path style="fill:#d3ce9a; stroke:none;" d="M160 85L164 86L160 85z"/>
<path style="fill:#ece25e; stroke:none;" d="M184 85L187 87L184 85z"/>
<path style="fill:#d3ce9a; stroke:none;" d="M258 85C258.027 87.5805 258.229 88.1382 260 90L258 85z"/>
<path style="fill:#6f709b; stroke:none;" d="M30 86L30 108C32.2187 102.713 32.2187 91.2873 30 86z"/>
<path style="fill:#ece25e; stroke:none;" d="M70 88L77 87C74.266 85.8599 72.0026 85.7068 70 88M166 86L168 89L140 88C149.976 92.1862 163.768 87.7621 174.039 90.0448C180.109 91.3936 184.972 96.6775 190 100C185.713 91.2089 174.888 88.0376 166 86z"/>
<path style="fill:#444031; stroke:none;" d="M58 87L60 90C62.5251 88.7787 63.4181 88.6485 65 91L67 87L58 87z"/>
<path style="fill:#888358; stroke:none;" d="M71 87L77 88L71 87z"/>
<path style="fill:#444031; stroke:none;" d="M110 99C117.231 95.3135 122.97 90.1971 131 88C123.927 85.2671 113.396 93.1299 110 99z"/>
<path style="fill:#ece25e; stroke:none;" d="M187 87L191 90L187 87z"/>
<path style="fill:#444031; stroke:none;" d="M244 88L248 88L244 88z"/>
<path style="fill:#888358; stroke:none;" d="M255.667 87.3333L256.333 87.6667L255.667 87.3333z"/>
<path style="fill:#373662; stroke:none;" d="M61 88L61 92L65 92L65 88L61 88M74 100C69.344 96.7587 70.4165 94.1724 71 89C73.7377 89.1789 75.606 89.6608 78 91L79 88C76.101 88.0022 72.2368 87.3934 69.966 89.6034C65.2834 94.1607 67.2674 100.955 74 100z"/>
<path style="fill:#d3ce9a; stroke:none;" d="M78 91C80.0924 90.5943 80.0198 90.7833 81 89L78 91z"/>
<path style="fill:#888358; stroke:none;" d="M138 89C144.202 91.6026 153.298 90 160 90C153.798 87.3974 144.702 89 138 89z"/>
<path style="fill:#faed24; stroke:none;" d="M170 89C171.19 93.0671 175.634 93.2254 179 95.3611C184.458 98.8242 190.47 104.77 194.255 110.019C204.794 124.635 204.996 148.76 197.565 165L185 184C195.233 181.128 199.977 169.154 203.214 160C212.159 134.696 202.232 92.2338 170 89z"/>
<path style="fill:#ece25e; stroke:none;" d="M119 99C124.911 95.8573 130.42 92.5593 137 91C131.212 88.9476 121.866 93.9153 119 99z"/>
<path style="fill:#373662; stroke:none;" d="M117 181C110.618 171.904 103.649 163.37 101.468 152C96.5145 126.173 113.029 95.7419 140 91.3248C157.944 88.3861 168.414 94.4458 184 101C176.486 91.2637 165.441 90 154 90C135.975 90 120.057 93.5139 108.557 109C95.3689 126.76 93.6456 170.102 117 181z"/>
<path style="fill:#ece25e; stroke:none;" d="M191 90C197.927 99.8347 206.309 107.339 210.564 119C221.205 148.161 205.567 181.044 182 199C190.591 200.144 202.141 181.579 205.982 175C219.873 151.209 220.355 103.689 191 90z"/>
<path style="fill:#2f3191; stroke:none;" d="M138 91.5147C102.998 98.7325 89.8593 146.597 110.532 174C124.169 192.077 146.849 194.842 168 190.725C195.145 185.442 208.154 141.853 198.535 119C188.765 95.7883 161.25 86.7202 138 91.5147z"/>
<path style="fill:#888358; stroke:none;" d="M238.333 91.6667L238.667 92.3333L238.333 91.6667z"/>
<path style="fill:#444031; stroke:none;" d="M62 92L63 94C64.6352 93.4549 64.4549 93.6352 65 92L62 92z"/>
<path style="fill:#ece25e; stroke:none;" d="M175 93L178 95L175 93M178 95L181 97L178 95z"/>
<path style="fill:#373662; stroke:none;" d="M187 95L200 113C201.459 106.679 192.233 97.5497 187 95M204 96C213.115 110.783 220.633 126.219 221 144C225.948 132.181 215.208 101.73 204 96z"/>
<path style="fill:#d3ce9a; stroke:none;" d="M230 96L229 100L234 99L230 96z"/>
<path style="fill:#ece25e; stroke:none;" d="M64 98C66.499 101.765 72.587 109.44 74 101L64 98M181 97C182.836 99.4469 184.237 100.701 187 102C185.164 99.5531 183.763 98.2995 181 97z"/>
<path style="fill:#373662; stroke:none;" d="M255 106L264 98C259.124 96.4515 256.184 101.893 255 106z"/>
<path style="fill:#ece25e; stroke:none;" d="M261 98C256.35 107.944 244.837 114.788 234 113L233 114L235 122C247.957 114.864 255.572 124.156 268 127L267 118L263 121C259.586 122.242 251.829 115.684 252 115L235 119L235 115C247.641 114.992 253.06 108.796 263 102L263 107C260.703 107.674 260.226 107.965 259 110L262 108C263.001 109.924 263.077 110.098 265 111L264 98L261 98z"/>
<path style="fill:#d3ce9a; stroke:none;" d="M74 99L74 103L76 99L74 99z"/>
<path style="fill:#6f709b; stroke:none;" d="M108 100L108 102C109.635 101.455 109.455 101.635 110 100L108 100z"/>
<path style="fill:#ece25e; stroke:none;" d="M98 101C95.4046 105.127 93.7145 109.166 93 114L100 101L98 101M207 101L209 104L207 101z"/>
<path style="fill:#373662; stroke:none;" d="M100 113L108 102C103.351 104.272 100.975 107.962 100 113z"/>
<path style="fill:#444031; stroke:none;" d="M186 102C187.104 104.357 187.956 105.376 190 107C188.896 104.643 188.044 103.624 186 102z"/>
<path style="fill:#faed24; stroke:none;" d="M235 115L235 119L250.41 115.852L263 107L263 102C252.328 106.889 247.747 114.965 235 115z"/>
<path style="fill:#373662; stroke:none;" d="M37 130C39.8701 123.163 39.6796 112.463 40 105L48 105C35.1168 95.2522 37 123.989 37 130z"/>
<path style="fill:#888358; stroke:none;" d="M264.333 103.667L264.667 104.333L264.333 103.667z"/>
<path style="fill:#373662; stroke:none;" d="M265 103L265 111L262 108C257.755 110.419 253.983 113.111 251 117L256 118L255 114C262.05 111.389 274.898 107.912 277 118L279 118L279 104L272 104L278 105L278 112C271.316 109.179 268.412 109.826 265 103z"/>
<path style="fill:#6f709b; stroke:none;" d="M272 103L279 104L272 103z"/>
<path style="fill:#acadd2; stroke:none;" d="M279 103L279 118C280.74 113.852 280.74 107.148 279 103z"/>
<path style="fill:#ece25e; stroke:none;" d="M91 104L88 111C90.2559 108.853 91.7276 107.133 91 104M40 105L38 130L46 130C43.5527 126.295 41.2157 124.801 42 120C39.1324 115.828 42.777 111.052 46 108L46 106L40 105z"/>
<path style="fill:#acadd2; stroke:none;" d="M45 105L49 107C47.686 105.382 47.1228 105.307 45 105z"/>
<path style="fill:#444031; stroke:none;" d="M203 105L205 108L203 105z"/>
<path style="fill:#d3ce9a; stroke:none;" d="M70 108L73 106C70.9076 106.406 70.9802 106.217 70 108z"/>
<path style="fill:#ece25e; stroke:none;" d="M190 106L196 115C196.607 110.814 193.529 107.804 190 106z"/>
<path style="fill:#888358; stroke:none;" d="M46 107L49 108L46 107z"/>
<path style="fill:#373662; stroke:none;" d="M145 108L162 109C157.431 105.878 150.137 106.482 145 108z"/>
<path style="fill:#acadd2; stroke:none;" d="M30 108L30 137C32.6678 130.642 32.6678 114.358 30 108M70.6667 108.333L71.3333 108.667L70.6667 108.333z"/>
<path style="fill:#faed24; stroke:none;" d="M133 128L147 128C152.612 114.803 162.339 128.753 151.983 133.142L145 134L145 154L158 154C158.088 144.271 164.506 143.485 168.991 135.999C172.602 129.97 171.234 120.282 168.276 114.189C164.078 105.541 143.458 106.527 137.418 112.43C133.343 116.413 133.015 122.698 133 128z"/>
<path style="fill:#888358; stroke:none;" d="M156.667 108.333L157.333 108.667L156.667 108.333z"/>
<path style="fill:#444031; stroke:none;" d="M244 113C247.112 112.202 249.352 110.826 252 109C248.638 108.499 245.916 110.273 244 113M43 109L43 115L47 115L44 114L43 109z"/>
<path style="fill:#888358; stroke:none;" d="M160.667 109.333L161.333 109.667L160.667 109.333z"/>
<path style="fill:#373662; stroke:none;" d="M131 126C134.006 120.679 135.001 114.95 140 111C133.361 109.623 131.142 121.122 131 126z"/>
<path style="fill:#ece25e; stroke:none;" d="M198 110L200 113L198 110z"/>
<path style="fill:#444031; stroke:none;" d="M206 110L208 113L206 110z"/>
<path style="fill:#373662; stroke:none;" d="M231 110L232 117C233.078 114.227 232.663 112.435 231 110z"/>
<path style="fill:#6f709b; stroke:none;" d="M232 112L235 111C233.222 110.045 232.979 110.234 232 112z"/>
<path style="fill:#d3ce9a; stroke:none;" d="M255 113L258 110C255.876 110.899 255.899 110.876 255 113M42 111L42 115C42.7102 113.241 42.7102 112.759 42 111z"/>
<path style="fill:#ece25e; stroke:none;" d="M87 111L86 115C87.303 113.332 87.553 113.008 87 111z"/>
<path style="fill:#d3ce9a; stroke:none;" d="M233 111L233 114L235 111L233 111z"/>
<path style="fill:#ece25e; stroke:none;" d="M267 111C269.048 114.731 271.872 116.201 276 117L276 112L267 111z"/>
<path style="fill:#888358; stroke:none;" d="M269 111L272 112L269 111z"/>
<path style="fill:#ece25e; stroke:none;" d="M105 112C101.57 119.223 98.3472 126.935 98 135C101.118 130.044 106.571 117.664 105 112z"/>
<path style="fill:#888358; stroke:none;" d="M148.667 112.333L149.333 112.667L148.667 112.333z"/>
<path style="fill:#373662; stroke:none;" d="M139 121C141.786 118.47 144.247 114.976 148 117C164.315 113.51 165.098 135.576 149 138L149 150L154 150C155.039 137.403 170.145 135.612 165.842 121.001C162.626 110.082 140.447 108.318 139 121z"/>
<path style="fill:#444031; stroke:none;" d="M235 112C237.057 113.582 238.387 113.826 241 114L235 112z"/>
<path style="fill:#d3ce9a; stroke:none;" d="M70 113L72 116L72 113L70 113z"/>
<path style="fill:#888358; stroke:none;" d="M158 113L161 114L158 113z"/>
<path style="fill:#373662; stroke:none;" d="M201 113C203.079 121.773 207.663 129.788 207.957 139C208.264 148.62 203.4 158.474 202 168C206.147 162.785 206.866 153.414 209 147C211.782 157.117 204.998 166.429 203 176C217.39 160.617 213.964 131.194 209 113C206.469 120.138 212 135.541 212 144L210 144C209.999 133.685 208.532 120.756 201 113M267 113C269.043 116.624 271.999 118.081 276 119C273.384 116.301 270.401 114.59 267 113z"/>
<path style="fill:#888358; stroke:none;" d="M69.3333 114.667L69.6667 115.333L69.3333 114.667z"/>
<path style="fill:#ece25e; stroke:none;" d="M92 114L90 123C91.7727 120.179 92.9614 117.251 92 114M214 114C214.493 119.647 216.29 125.603 218 131C219.954 125.983 216.751 118.372 214 114z"/>
<path style="fill:#888358; stroke:none;" d="M276.333 114.667L276.667 115.333L276.333 114.667z"/>
<path style="fill:#faed24; stroke:none;" d="M40 115L40 120C49.6866 120.08 60.917 120.52 70 124L70 118C59.8336 118 49.8899 117.03 40 115z"/>
<path style="fill:#acadd2; stroke:none;" d="M43 115C45.8897 116.213 48.8741 115.998 52 116C49.1103 114.787 46.1259 115.002 43 115z"/>
<path style="fill:#373662; stroke:none;" d="M52 115C56.9741 117.087 63.638 116 69 116C64.0259 113.913 57.362 115 52 115z"/>
<path style="fill:#ece25e; stroke:none;" d="M70 115C63.1357 118.644 51.8121 116 44 116C50.9034 118.897 65.5972 114.209 70 121C70.9511 118.715 70.9511 117.285 70 115z"/>
<path style="fill:#2f3191; stroke:none;" d="M139 124C144.259 123.182 146.793 120.072 148 115C142.701 115.82 140.048 118.812 139 124z"/>
<path style="fill:#888358; stroke:none;" d="M61 116L65 117L61 116z"/>
<path style="fill:#444031; stroke:none;" d="M65 116L69 117L65 116z"/>
<path style="fill:#888358; stroke:none;" d="M71 116L71 121C71.8299 118.97 71.8299 118.03 71 116z"/>
<path style="fill:#ece25e; stroke:none;" d="M85 116C74.9756 146.818 85.1236 187.919 116 203.726C131.679 211.753 149.944 211 167 211C158.804 207.561 145.117 209.153 136 208C151.147 203.523 167.384 209.489 182 201C177.858 200.274 173.175 202.948 169 203.739C159.45 205.549 149.771 206.985 140 205.816C123.29 203.815 111.919 190.099 99 181C104.381 192.538 118.255 196.724 127 205C98.3448 202.065 83.1782 163.421 82.1042 139C81.7937 131.941 87.1703 122.259 85 116M143 125C147.137 121.84 149.589 117.837 155 117C149.008 114.586 145.126 119.982 143 125z"/>
<path style="fill:#acadd2; stroke:none;" d="M165 116L165 121C165.83 118.97 165.83 118.03 165 116z"/>
<path style="fill:#d3ce9a; stroke:none;" d="M169 116L169 120C169.71 118.241 169.71 117.759 169 116z"/>
<path style="fill:#373662; stroke:none;" d="M170 116L171 133L173 133C173 126.97 173.027 121.396 170 116z"/>
<path style="fill:#888358; stroke:none;" d="M233.333 116.667L233.667 117.333L233.333 116.667z"/>
<path style="fill:#acadd2; stroke:none;" d="M276 116L275 118L277 118C277 116.147 277.3 116.65 276 116z"/>
<path style="fill:#373662; stroke:none;" d="M97 117C91.6122 126.333 92 137.566 92 148L94.4282 129C95.3353 125.076 97.8241 120.981 97 117z"/>
<path style="fill:#ece25e; stroke:none;" d="M138 117L136 124C137.836 121.692 138.797 119.889 138 117z"/>
<path style="fill:#373662; stroke:none;" d="M233 118C233.062 119.883 232.737 123.621 235.318 124.083L246 121.035C253.407 120.935 259.774 125.582 266 129C262.478 122.221 238.957 112.271 237 124L233 118z"/>
<path style="fill:#888358; stroke:none;" d="M244 118L248 119L244 118M264.333 118.667L264.667 119.333L264.333 118.667z"/>
<path style="fill:#6f709b; stroke:none;" d="M279 118L284 119L279 118z"/>
<path style="fill:#acadd2; stroke:none;" d="M284 118L284 125C285.059 122.466 285.059 120.534 284 118z"/>
<path style="fill:#ece25e; stroke:none;" d="M199 119L201 129C202.409 125.381 201.259 122.036 199 119z"/>
<path style="fill:#373662; stroke:none;" d="M259 119L264 121C262.46 119.197 261.403 119.168 259 119z"/>
<path style="fill:#d3ce9a; stroke:none;" d="M41 126L42 121L48 121C43.4364 119.152 41.3506 121.5 41 126z"/>
<path style="fill:#444031; stroke:none;" d="M138 120L136 125L143 125L139 124L138 120z"/>
<path style="fill:#888358; stroke:none;" d="M151 120L154 121L151 120z"/>
<path style="fill:#444031; stroke:none;" d="M42 121C42.1204 124.692 42.3133 126.777 46 128L43 122L54 122C50.3025 120.448 45.9832 121 42 121z"/>
<path style="fill:#acadd2; stroke:none;" d="M54 121L60 122L54 121z"/>
<path style="fill:#d3ce9a; stroke:none;" d="M70 121L69 126C70.8793 124.377 70.9157 123.3 70 121z"/>
<path style="fill:#373662; stroke:none;" d="M132 130C136.711 131.977 148.994 134.4 153.867 132.258C158.515 130.214 158.954 122.11 153.075 121.466C148.474 120.962 148.664 127.031 145.687 128.972C142.279 131.193 135.906 130 132 130z"/>
<path style="fill:#d3ce9a; stroke:none;" d="M234 121C235.119 123.607 236.341 124.068 237 121L234 121z"/>
<path style="fill:#444031; stroke:none;" d="M55 122C58.4324 123.44 62.2998 123 66 123C62.5676 121.56 58.7002 122 55 122z"/>
<path style="fill:#888358; stroke:none;" d="M66.6667 122.333L67.3333 122.667L66.6667 122.333z"/>
<path style="fill:#ece25e; stroke:none;" d="M132 122L132 129L147 129C142.783 127.231 137.541 128 133 128L132 122z"/>
<path style="fill:#2f3191; stroke:none;" d="M151 122L148 131C154.749 130.92 159.361 124.539 151 122z"/>
<path style="fill:#acadd2; stroke:none;" d="M171 123L171 129C171.951 126.715 171.951 125.285 171 123z"/>
<path style="fill:#888358; stroke:none;" d="M267 123L267 126C267.696 124.446 267.696 124.554 267 123z"/>
<path style="fill:#ece25e; stroke:none;" d="M89 124C85.6165 136.94 85.5496 147.093 89 160C90.6345 155.393 87.4232 150.734 87.0972 146C86.6129 138.966 91.0292 130.617 89 124z"/>
<path style="fill:#acadd2; stroke:none;" d="M167 124L167 129C167.83 126.97 167.83 126.03 167 124z"/>
<path style="fill:#d3ce9a; stroke:none;" d="M136 125L143 126L136 125z"/>
<path style="fill:#acadd2; stroke:none;" d="M147 125L147 129C147.71 127.241 147.71 126.759 147 125z"/>
<path style="fill:#6f709b; stroke:none;" d="M282 125L282 129C282.71 127.241 282.71 126.759 282 125z"/>
<path style="fill:#888358; stroke:none;" d="M69.6667 126.333L70.3333 126.667L69.6667 126.333M131 126L131 129C131.696 127.446 131.696 127.554 131 126z"/>
<path style="fill:#d3ce9a; stroke:none;" d="M266 127L266 129L268 129L268 127L266 127z"/>
<path style="fill:#888358; stroke:none;" d="M46.3333 128.667L46.6667 129.333L46.3333 128.667M213 128L213 133C213.83 130.97 213.83 130.03 213 128M132 129C136.471 130.876 142.183 130 147 130C142.529 128.124 136.817 129 132 129z"/>
<path style="fill:#ece25e; stroke:none;" d="M167 129C163.003 138.086 155.008 139.394 155 150C157.71 143.979 168.731 135.335 167 129z"/>
<path style="fill:#373662; stroke:none;" d="M201 129L199 157C202.151 149.982 204.029 136.219 201 129z"/>
<path style="fill:#acadd2; stroke:none;" d="M282 129L282 135C282.951 132.715 282.951 131.285 282 129z"/>
<path style="fill:#888358; stroke:none;" d="M44.6667 130.333L45.3333 130.667L44.6667 130.333z"/>
<path style="fill:#444031; stroke:none;" d="M80 130L80 139C81.2561 136.006 81.2561 132.994 80 130z"/>
<path style="fill:#d3ce9a; stroke:none;" d="M99 132L98 146C99.5508 142.306 100.353 135.771 99 132M93 133L93 149C94.8123 144.681 94.8123 137.319 93 133M144 133L144 155L160 155L159 146L158 154L145 154C145.55 147.033 145.881 140.975 145 134L153 134C150.11 132.787 147.126 133.002 144 133z"/>
<path style="fill:#373662; stroke:none;" d="M170 133L160.603 146C158.11 152.726 162.277 161.546 159.917 166.996C158.281 170.777 153.237 174.849 149.171 172.357L143 167C144.635 177.509 155.126 177.558 160.697 169.995C165.424 163.578 158.837 155.472 161.603 148C163.581 142.658 171.635 139.252 170 133z"/>
<path style="fill:#444031; stroke:none;" d="M213 133L213 143C214.346 139.793 214.346 136.207 213 133M143 134L143 154C145.651 148.095 145.818 139.864 143 134z"/>
<path style="fill:#ece25e; stroke:none;" d="M207 134L206 149C208.501 144.826 208.882 138.486 207 134z"/>
<path style="fill:#373662; stroke:none;" d="M239 134C250.226 138.71 269.781 135 282 135C270.774 130.29 251.219 134 239 134z"/>
<path style="fill:#6f709b; stroke:none;" d="M238 135L238 142C239.059 139.466 239.059 137.534 238 135z"/>
<path style="fill:#ece25e; stroke:none;" d="M150 136L156 137L150 136z"/>
<path style="fill:#888358; stroke:none;" d="M202 136L202 143C203.059 140.466 203.059 138.534 202 136z"/>
<path style="fill:#ece25e; stroke:none;" d="M148 137L148 152L154 152L149 151C149 146.459 149.769 141.217 148 137z"/>
<path style="fill:#888358; stroke:none;" d="M149 137L153 138L149 137M220 137L220 144C221.059 141.466 221.059 139.534 220 137z"/>
<path style="fill:#acadd2; stroke:none;" d="M39 138C42.4324 139.44 46.2998 139 50 139C46.5676 137.56 42.7002 138 39 138z"/>
<path style="fill:#6f709b; stroke:none;" d="M50 138C52.8897 139.213 55.8741 138.998 59 139C56.1103 137.787 53.1259 138.002 50 138z"/>
<path style="fill:#acadd2; stroke:none;" d="M58 139L58 143C58.7102 141.241 58.7102 140.759 58 139z"/>
<path style="fill:#888358; stroke:none;" d="M80 139L80 144C80.8299 141.97 80.8299 141.03 80 139M87 139L87 150C88.4309 146.59 88.4309 142.41 87 139M149 142L149 146C149.71 144.241 149.71 143.759 149 142z"/>
<path style="fill:#6f709b; stroke:none;" d="M58 143L58 152C59.2561 149.006 59.2561 145.994 58 143z"/>
<path style="fill:#444031; stroke:none;" d="M160 143L159 151L162 143L160 143z"/>
<path style="fill:#acadd2; stroke:none;" d="M154 145L154 149C154.71 147.241 154.71 146.759 154 145z"/>
<path style="fill:#ece25e; stroke:none;" d="M94 148C95.1207 160.837 100.256 174.411 111 182L101.494 168C98.4085 161.535 98.3776 153.851 94 148z"/>
<path style="fill:#d3ce9a; stroke:none;" d="M218 148L218 151C218.696 149.446 218.696 149.554 218 148z"/>
<path style="fill:#373662; stroke:none;" d="M93 149C93.3798 156.416 96.0626 164.216 99 171C100.249 165.072 96.2008 154.087 93 149z"/>
<path style="fill:#888358; stroke:none;" d="M154 149L149 150C150.587 150.914 155.184 151.867 154 149z"/>
<path style="fill:#373662; stroke:none;" d="M81 152C81.3166 162.949 85.009 169.086 81 180L79 180C77.8465 177.751 77.2489 177.154 75 176C76.9044 179.193 78.405 180.945 82 182L85 175L86 184L92 185C88.9583 186.285 86.2972 186.85 83 187C84.2731 197.851 78.6787 200.679 69 198C66.9839 203.923 65.0182 208.645 65 215C66.6855 211.286 67.0655 205.432 70.5486 202.773C77.6731 197.334 85.8448 202.143 86 189C91.887 188.37 94.5415 186.728 100 190L88.5185 174C85.2641 166.893 85.2472 158.718 81 152z"/>
<path style="fill:#6f709b; stroke:none;" d="M239 153L247 154L239 153z"/>
<path style="fill:#acadd2; stroke:none;" d="M247 153C252.959 155.5 261.564 154 268 154C262.041 151.499 253.436 153 247 153z"/>
<path style="fill:#6f709b; stroke:none;" d="M268 153C271.959 154.661 276.737 154 281 154C277.041 152.339 272.263 153 268 153M36 154C42.2023 156.603 51.2977 155 58 155C51.7977 152.397 42.7023 154 36 154z"/>
<path style="fill:#d3ce9a; stroke:none;" d="M69 154L69 158C70.8129 156.444 70.8129 155.556 69 154M211 154L211 158C211.71 156.241 211.71 155.759 211 154M216 154L216 157C216.696 155.446 216.696 155.554 216 154z"/>
<path style="fill:#373662; stroke:none;" d="M240 154C247.64 157.206 259.729 154.999 268 155C271.341 155 276.8 154.063 278.972 157.318C281.698 161.403 280 170.246 280 175C282.5 169.041 281 160.436 281 154L240 154z"/>
<path style="fill:#acadd2; stroke:none;" d="M30 155L36 156L30 155z"/>
<path style="fill:#888358; stroke:none;" d="M69.3333 155.667L69.6667 156.333L69.3333 155.667z"/>
<path style="fill:#444031; stroke:none;" d="M144 155L145 160C149.187 157.369 156.437 158.062 159 155L144 155z"/>
<path style="fill:#373662; stroke:none;" d="M223 155L223 160L225 155L223 155z"/>
<path style="fill:#888358; stroke:none;" d="M225.667 155.333L226.333 155.667L225.667 155.333M235 155L236 159C236.751 156.954 236.656 156.404 235 155z"/>
<path style="fill:#acadd2; stroke:none;" d="M29 156L29 172C30.8123 167.681 30.8123 160.319 29 156z"/>
<path style="fill:#ece25e; stroke:none;" d="M147 170C144.031 160.112 150.668 156.484 159 161C153.27 150.08 138.51 161.685 147 170M225 156C225.312 159.93 226.457 161.315 230 163C229.426 159.302 228.345 157.684 225 156z"/>
<path style="fill:#444031; stroke:none;" d="M227 156L232 164L224 160C225.911 163.21 228.397 164.216 232 165L232 169L235 156L233 159L227 156z"/>
<path style="fill:#ece25e; stroke:none;" d="M235 156L234 166L241 165L235 164L237 160L235 156z"/>
<path style="fill:#373662; stroke:none;" d="M40 159C40.0005 163.982 40.039 168.353 42 173C43.4595 168.929 41.5451 164.221 41 160C47.8246 166.027 61.0859 160.225 69 158C63.7513 155.972 57.3606 159.84 52 160.674C47.7475 161.337 44.0816 159.838 40 159z"/>
<path style="fill:#ece25e; stroke:none;" d="M71 157C65.6153 159.031 59.7653 160.737 54 161C59.4179 163.252 65.6289 160.425 71 159C69.2431 161.725 67.0269 161.998 64 163C67.5805 164.273 69.7423 163.947 71 168C73.4089 164.692 72.6288 160.628 71 157z"/>
<path style="fill:#faed24; stroke:none;" d="M150.019 158.083C141.022 162.082 147.488 176.441 155.941 171.968C163.819 167.799 158.118 154.482 150.019 158.083z"/>
<path style="fill:#888358; stroke:none;" d="M224.333 158.667L224.667 159.333L224.333 158.667z"/>
<path style="fill:#faed24; stroke:none;" d="M42 163C42.7102 172.734 69.7123 165.009 71 159C61.598 160.593 51.6407 163.997 42 163z"/>
<path style="fill:#ece25e; stroke:none;" d="M203 159L202 165C203.305 162.819 203.736 161.433 203 159z"/>
<path style="fill:#373662; stroke:none;" d="M263 159C258.778 163.295 252.58 161.015 247 161C251.767 163.292 260.472 165.887 264 161C265.243 165.921 263.715 170.33 262 175C266.726 172.109 269.432 161.137 263 159z"/>
<path style="fill:#d3ce9a; stroke:none;" d="M41 160L41 164C42.2429 162.097 42.2429 161.903 41 160z"/>
<path style="fill:#888358; stroke:none;" d="M58.6667 160.333L59.3333 160.667L58.6667 160.333z"/>
<path style="fill:#ece25e; stroke:none;" d="M90 160C90.4542 165.553 92.2127 170.202 95 175C95.796 170.456 92.4397 163.859 90 160z"/>
<path style="fill:#373662; stroke:none;" d="M151.133 161.346C146.759 162.738 149.709 169.746 153.682 167.824C157.095 166.173 154.75 160.195 151.133 161.346z"/>
<path style="fill:#ece25e; stroke:none;" d="M215 160L204 184C210.571 179.329 217.603 168.487 215 160z"/>
<path style="fill:#d3ce9a; stroke:none;" d="M230 160L231 164C231.393 162.076 231.146 161.64 230 160z"/>
<path style="fill:#faed24; stroke:none;" d="M235 160L235 164L263 168L263 166L235 160z"/>
<path style="fill:#888358; stroke:none;" d="M239 160L242 161L239 160z"/>
<path style="fill:#acadd2; stroke:none;" d="M72.3333 161.667L72.6667 162.333L72.3333 161.667z"/>
<path style="fill:#373662; stroke:none;" d="M197 161C193.462 166.072 188.607 172.024 187 178C191.379 174.435 198.003 167.026 197 161z"/>
<path style="fill:#d3ce9a; stroke:none;" d="M198 161L196 167C197.915 164.968 198.744 163.735 198 161z"/>
<path style="fill:#888358; stroke:none;" d="M245.667 161.333L246.333 161.667L245.667 161.333z"/>
<path style="fill:#d3ce9a; stroke:none;" d="M264 161L263 164C264.766 163.021 264.955 162.778 264 161z"/>
<path style="fill:#2f3191; stroke:none;" d="M154 167L154 162C150.156 163.277 150.156 165.723 154 167z"/>
<path style="fill:#d3ce9a; stroke:none;" d="M160 162L160 168C160.951 165.715 160.951 164.285 160 162z"/>
<path style="fill:#ece25e; stroke:none;" d="M249 162C252.886 165.356 257.996 165.785 263 166L263 168L253 167C258.078 169.5 263.449 171.061 264 164L249 162z"/>
<path style="fill:#888358; stroke:none;" d="M43 163L46 164L43 163z"/>
<path style="fill:#444031; stroke:none;" d="M64 164L70 165L70 169C71.8871 164.034 68.1268 163.36 64 164z"/>
<path style="fill:#888358; stroke:none;" d="M143 163L143 167C143.71 165.241 143.71 164.759 143 163M62.6667 164.333L63.3333 164.667L62.6667 164.333M156.333 164.667L156.667 165.333L156.333 164.667z"/>
<path style="fill:#acadd2; stroke:none;" d="M233 164L232 171C234.499 168.951 234.562 166.744 233 164z"/>
<path style="fill:#888358; stroke:none;" d="M264 164L264 167C264.696 165.446 264.696 165.554 264 164M58.6667 165.333L59.3333 165.667L58.6667 165.333z"/>
<path style="fill:#2f3191; stroke:none;" d="M60 165C60.5819 172.468 68.4181 172.468 69 165L60 165z"/>
<path style="fill:#373662; stroke:none;" d="M69 165C67.6021 173.765 62.3721 169.263 58 166C60.7355 174.623 72.6068 173.917 69 165z"/>
<path style="fill:#acadd2; stroke:none;" d="M73 165L73 172C74.0595 169.466 74.0595 167.534 73 165z"/>
<path style="fill:#ece25e; stroke:none;" d="M201 165L197 174C199.842 171.555 202.049 168.837 201 165z"/>
<path style="fill:#373662; stroke:none;" d="M259 184C252.587 177.519 239.33 177.164 236 168L255 169C251.175 167.161 228.157 161.57 235.032 172.61C238.454 178.105 252.916 182.555 259 184z"/>
<path style="fill:#888358; stroke:none;" d="M240 165L243 166L240 165M54 166L56 170L57 166L54 166z"/>
<path style="fill:#ece25e; stroke:none;" d="M57 166C57.1959 175.148 61.7682 179.728 71 177C66.7252 175.968 63.8988 176.794 60 174L69 173C62.9922 171.527 60.6722 171.721 57 166z"/>
<path style="fill:#888358; stroke:none;" d="M42.3333 167.667L42.6667 168.333L42.3333 167.667M49.6667 167.333L50.3333 167.667L49.6667 167.333M58 167L58 170C58.6961 168.446 58.6961 168.554 58 167z"/>
<path style="fill:#faed24; stroke:none;" d="M72 167C68.3689 171.879 66.2289 173.926 60 174C65.849 179.972 75.5826 175.559 72 167z"/>
<path style="fill:#ece25e; stroke:none;" d="M195 167C190.309 175.234 183.529 183.247 176 189L181 191L187 185C185.674 177.972 196.671 174.264 195 167z"/>
<path style="fill:#888358; stroke:none;" d="M250 167L253 168L250 167z"/>
<path style="fill:#d3ce9a; stroke:none;" d="M43 171L46 168C43.636 168.482 43.4825 168.636 43 171z"/>
<path style="fill:#444031; stroke:none;" d="M45 171L51 169C48.1196 167.902 46.6498 168.445 45 171M201 168C196.041 177.56 184.762 187.828 176 194C182.518 195.307 202.737 174.642 201 168z"/>
<path style="fill:#373662; stroke:none;" d="M214 168C210.426 183.04 190.023 202.123 176 208C180.509 209.546 184.545 206.052 188 203.331C195.508 197.419 218.124 178.674 214 168z"/>
<path style="fill:#888358; stroke:none;" d="M255 168L258 169L255 168M151.667 169.333L152.333 169.667L151.667 169.333z"/>
<path style="fill:#444031; stroke:none;" d="M258 169L262 172C260.771 170.13 260.132 169.776 258 169z"/>
<path style="fill:#888358; stroke:none;" d="M263 169L263 172C263.696 170.446 263.696 170.554 263 169z"/>
<path style="fill:#acadd2; stroke:none;" d="M44 170L43 173C44.7662 172.021 44.9554 171.778 44 170z"/>
<path style="fill:#d3ce9a; stroke:none;" d="M262 170L262 174C262.71 172.241 262.71 171.759 262 170z"/>
<path style="fill:#ece25e; stroke:none;" d="M147 171C149.234 173.296 150.802 173.77 154 174L147 171M232 171L231 176C238.209 177.241 244.635 182.999 252 182C246.454 177.406 238.781 176.576 234 171L232 171z"/>
<path style="fill:#6f709b; stroke:none;" d="M30 172L30 200C32.6044 193.793 32.6044 178.207 30 172z"/>
<path style="fill:#d3ce9a; stroke:none;" d="M230 174L229 178C230.656 176.596 230.751 176.046 230 174M73 175C73.8993 177.124 73.8764 177.101 76 178C74.9988 176.076 74.9225 175.902 73 175z"/>
<path style="fill:#ece25e; stroke:none;" d="M85 175C81.2394 183.484 82.7362 185.993 92 186L86 184C85.9983 180.874 86.2129 177.89 85 175z"/>
<path style="fill:#444031; stroke:none;" d="M201 176C195.98 184.686 186.884 190.471 182 199C190.293 194.698 199.355 184.609 203 176L201 176z"/>
<path style="fill:#373662; stroke:none;" d="M230 179L243 181L242 185C244.843 184.579 246.012 184.061 248 182C242.934 179.894 234.169 173.291 230 179z"/>
<path style="fill:#888358; stroke:none;" d="M63 178L68 179L63 178z"/>
<path style="fill:#faed24; stroke:none;" d="M74 178C69.1342 183.873 57.9015 193.454 50 192C54.1431 203.267 76.7346 186.105 77 178L74 178z"/>
<path style="fill:#acadd2; stroke:none;" d="M272 178L279 179L272 178z"/>
<path style="fill:#d3ce9a; stroke:none;" d="M272 179L272 190C273.431 186.59 273.431 182.41 272 179z"/>
<path style="fill:#ece25e; stroke:none;" d="M77 180C77.2417 183.368 79.9207 187.765 78.6775 190.955C76.0364 197.733 69.248 194.332 68 189L64 190C67.2537 199.687 55.4078 207.961 65 216C63.9524 209.539 66.9698 204.962 69 199C65.5712 201.514 64.3418 206.058 63 210C62.6891 204.695 65.0913 198.599 69 195L69 198C83.8314 203.405 86.5179 189.23 77 180M116 181C118.709 186.301 124.732 189.508 130 192C122.356 193.208 118.34 186.939 112 184C123.579 200.087 146.529 198 164 198C158.041 195.5 149.436 197 143 197L174 192C166.651 189.371 155.938 195.08 148 194.871C135.217 194.535 126.572 186.886 116 181z"/>
<path style="fill:#373662; stroke:none;" d="M180 185C182.249 183.846 182.846 183.249 184 181C181.751 182.154 181.154 182.751 180 185z"/>
<path style="fill:#444031; stroke:none;" d="M79 182L82 188L82 182L79 182z"/>
<path style="fill:#faed24; stroke:none;" d="M223 194L231 195C231 191.997 235.307 192.34 238 191.667C244.016 190.163 255.52 188.869 260 185C250.912 180.237 242.835 185.413 233.961 188.617C229.765 190.132 225.477 189.951 223 194z"/>
<path style="fill:#373662; stroke:none;" d="M56 191L68 184C63.0302 182.387 58.1515 186.789 56 191z"/>
<path style="fill:#444031; stroke:none;" d="M247 183L250 184L247 183M77 195C73.7561 193.489 71.3749 192.856 69 190C73.3454 187.938 76.3682 185.961 79 191C82.9886 178.316 58.1195 191.817 72.9599 194.852L77 195z"/>
<path style="fill:#888358; stroke:none;" d="M89.6667 184.333L90.3333 184.667L89.6667 184.333z"/>
<path style="fill:#373662; stroke:none;" d="M112 185C115.845 193.07 125.467 196.924 134 197L112 185z"/>
<path style="fill:#6f709b; stroke:none;" d="M178 188L181 185C178.876 185.899 178.899 185.876 178 188z"/>
<path style="fill:#444031; stroke:none;" d="M234 186C236.698 186.969 239.161 186.353 242 186C239.194 184.854 236.929 185.308 234 186z"/>
<path style="fill:#2f3191; stroke:none;" d="M69 190C75.7046 202.159 82.9713 182.687 72.1597 187.887L69 190z"/>
<path style="fill:#888358; stroke:none;" d="M83 186L89 187L83 186z"/>
<path style="fill:#ece25e; stroke:none;" d="M200 186L200 188C201.635 187.455 201.455 187.635 202 186L200 186z"/>
<path style="fill:#373662; stroke:none;" d="M170 190C173.518 191.205 175.659 189.654 178 187L170 190M221 193C225.036 189.976 229.026 188.67 234 188C229.07 185.935 222.719 187.7 221 193z"/>
<path style="fill:#ece25e; stroke:none;" d="M204 212C212.347 212.793 221.39 224.456 226 231C234.634 226.974 241.443 219.468 238 210C233.396 220.866 232.736 226.216 221 218L228 228C221.198 223.209 211.928 215.358 208 208C218.56 213.636 217.29 216.323 229 211C228.068 207.666 226.757 206.087 224 204C224.832 215.2 217.256 212.363 211 208C214.76 204.253 218.132 201.19 223 199L222 196C230.846 194.78 241.935 202.121 249 207L252 199C244.508 203.844 232.032 194.388 223 194C226.79 189.899 232.694 189.213 238 188C225.843 183.651 208.44 202.479 204 212M53 192C56.4888 192.927 59.0881 190.894 62 189C58.721 188.521 55.9697 190.623 53 192z"/>
<path style="fill:#888358; stroke:none;" d="M248 188L251 189L248 188z"/>
<path style="fill:#373662; stroke:none;" d="M129 189C139.517 199.164 157.485 192.01 170 192C164.411 189.655 157.875 191.926 152 191.996L129 189z"/>
<path style="fill:#faed24; stroke:none;" d="M143 196C151.024 199.367 176.75 198.896 180 189C167.127 191.822 156.602 196 143 196z"/>
<path style="fill:#888358; stroke:none;" d="M245.667 189.333L246.333 189.667L245.667 189.333z"/>
<path style="fill:#373662; stroke:none;" d="M233 193L233 195L236 196L235 193C240.284 192.942 244.935 191.352 250 190C244.949 188.451 237.832 191.177 233 193M47 190C47.7982 193.112 49.1742 195.352 51 198C51.4672 194.604 49.3487 192.339 47 190z"/>
<path style="fill:#acadd2; stroke:none;" d="M48 190L50 193L50 190L48 190z"/>
<path style="fill:#faed24; stroke:none;" d="M81 190L73 199C78.4773 198.822 83.4837 196.164 81 190z"/>
<path style="fill:#888358; stroke:none;" d="M83 190L83 195C83.8299 192.97 83.8299 192.03 83 190z"/>
<path style="fill:#373662; stroke:none;" d="M100 190C102.43 195.212 106.788 199.57 112 202C108.72 197.344 104.656 193.28 100 190M51 193L55 192C52.9535 191.249 52.4043 191.344 51 193M64 191C60.1434 193.986 56.7955 195.954 56 201C58.4327 198.116 60.7249 195.912 64 194L62 203C64.4186 199.357 66.6824 194.873 64 191z"/>
<path style="fill:#6f709b; stroke:none;" d="M271 191L271 202C272.431 198.59 272.431 194.41 271 191z"/>
<path style="fill:#444031; stroke:none;" d="M160 192L166 193L160 192z"/>
<path style="fill:#ece25e; stroke:none;" d="M171 195C173.605 195.729 175.45 194.921 178 194C175.395 193.271 173.55 194.079 171 195z"/>
<path style="fill:#444031; stroke:none;" d="M220.333 193.667L220.667 194.333L220.333 193.667M230 193L233 195C232.02 193.217 232.092 193.406 230 193z"/>
<path style="fill:#d3ce9a; stroke:none;" d="M144 194C146.89 195.213 149.874 194.998 153 195C150.11 193.787 147.126 194.002 144 194z"/>
<path style="fill:#faed24; stroke:none;" d="M67 195C64.8606 199.804 62.7812 204.784 62 210C65.4604 206.167 67.6116 200.613 70 196L67 195z"/>
<path style="fill:#888358; stroke:none;" d="M72 195L75 196L72 195z"/>
<path style="fill:#444031; stroke:none;" d="M117 195L120 197L117 195z"/>
<path style="fill:#373662; stroke:none;" d="M162 198C166.802 200.01 171.513 198.086 176 196C171.591 195.074 166.616 197.789 162 198z"/>
<path style="fill:#444031; stroke:none;" d="M212 202L220 196C215.891 195.175 213.615 198.578 212 202z"/>
<path style="fill:#373662; stroke:none;" d="M223 199C229.358 195.995 241.597 203.182 246 208C247.398 201.545 222.86 191.101 223 199z"/>
<path style="fill:#d3ce9a; stroke:none;" d="M164 197C166.46 197.888 168.415 197.467 171 197C168.54 196.112 166.585 196.533 164 197M191 196L191 198C192.635 197.455 192.455 197.635 193 196L191 196z"/>
<path style="fill:#ece25e; stroke:none;" d="M52 197L55 200C54.5176 197.636 54.364 197.482 52 197z"/>
<path style="fill:#888358; stroke:none;" d="M55.3333 197.667L55.6667 198.333L55.3333 197.667z"/>
<path style="fill:#d3ce9a; stroke:none;" d="M144 198C149.222 200.191 156.368 199 162 199C156.778 196.809 149.632 198 144 198M55 199C55.0313 200.832 54.9205 200.559 56 202L55 199z"/>
<path style="fill:#acadd2; stroke:none;" d="M88 199L90 202L91 201L90 199L88 199z"/>
<path style="fill:#373662; stroke:none;" d="M90 199C93.6075 204.121 98.2751 209.33 104 212C100.392 206.879 95.7249 201.67 90 199z"/>
<path style="fill:#444031; stroke:none;" d="M144 199C149.222 201.191 156.368 200 162 200C156.778 197.809 149.632 199 144 199z"/>
<path style="fill:#acadd2; stroke:none;" d="M222 199C222.98 200.783 222.908 200.594 225 201L222 199M30.6667 200.333L31.3333 200.667L30.6667 200.333z"/>
<path style="fill:#888358; stroke:none;" d="M75.6667 200.333L76.3333 200.667L75.6667 200.333z"/>
<path style="fill:#444031; stroke:none;" d="M125 200L128 202L125 200z"/>
<path style="fill:#373662; stroke:none;" d="M211 207C213.751 210.89 217.508 216.107 222 212C213.205 210.637 215.338 204.12 222 201C217.381 199.556 214.057 203.979 211 207z"/>
<path style="fill:#ece25e; stroke:none;" d="M90 201C87.3717 208.731 76.6249 221.441 68 221C71.3275 225.351 84.0208 240.921 89 234C83.653 232.729 79.2559 229.487 78 224L74 225C78.411 217.948 85.6192 208.94 93 205L92 209C98.0957 207.856 101.579 214.749 101 220C102.923 219.098 102.999 218.924 104 217C106.118 218.218 106.845 218.867 108 221L112 219L112 223L115 220C106 214.738 99.2111 205.295 90 201z"/>
<path style="fill:#444031; stroke:none;" d="M171 202C173.46 202.888 175.415 202.467 178 202C175.54 201.112 173.585 201.533 171 202M128 202C135.63 206.794 146.319 206 155 206C148.095 203.102 135.659 202.668 128 202z"/>
<path style="fill:#acadd2; stroke:none;" d="M270 202L270 211L272 202L270 202z"/>
<path style="fill:#373662; stroke:none;" d="M115 203C119.033 209.105 129.251 209.861 136 210L115 203z"/>
<path style="fill:#888358; stroke:none;" d="M129.667 203.333L130.333 203.667L129.667 203.333z"/>
<path style="fill:#444031; stroke:none;" d="M156 204C160.731 205.984 166.024 204.214 171 204C166.44 202.104 160.877 203.96 156 204z"/>
<path style="fill:#acadd2; stroke:none;" d="M182 205L185 203L182 205z"/>
<path style="fill:#444031; stroke:none;" d="M207 207L210 204C207.876 204.899 207.899 204.876 207 207z"/>
<path style="fill:#faed24; stroke:none;" d="M90 205C85.0512 212.025 77.4165 216.931 74 225C81.8287 222.865 90.5694 212.621 93 205L90 205z"/>
<path style="fill:#acadd2; stroke:none;" d="M137 205L141 206L137 205z"/>
<path style="fill:#d3ce9a; stroke:none;" d="M155 205L161 206L155 205z"/>
<path style="fill:#acadd2; stroke:none;" d="M247.333 205.667L247.667 206.333L247.333 205.667z"/>
<path style="fill:#444031; stroke:none;" d="M84 207L79 215C82.245 212.709 84.7092 210.245 87 207L84 207z"/>
<path style="fill:#373662; stroke:none;" d="M93 207C89.2857 212.218 85.2223 221.012 96 220C86.7901 214.012 94.6018 208.05 101 217C101.958 212.223 96.8969 208.819 93 207M201 214C193.001 214.253 187.999 219.927 181 223C182.099 226.321 183.59 226.737 187 227C185.265 225.95 185.069 225.954 183 226C186.681 222.013 195.156 215.508 200.999 216.539C213.514 218.746 206.161 230.841 199 234C201.152 238.601 203.293 243.826 209 243L205 248C208.988 248.907 210.492 245.489 211 242C205.705 241.592 203.577 238.921 202 234C214.702 229.642 205.703 221.873 208 214L203 213L207 207C203.206 208.333 201.588 209.991 201 214z"/>
<path style="fill:#d3ce9a; stroke:none;" d="M247 207L247 209C248.635 208.455 248.455 208.635 249 207L247 207z"/>
<path style="fill:#faed24; stroke:none;" d="M208 208C210.32 215.222 221.23 224.843 228 228L221 216C216.422 214.715 213.705 211.827 211 208L208 208z"/>
<path style="fill:#888358; stroke:none;" d="M64 209L64 214C64.8299 211.97 64.8299 211.03 64 209z"/>
<path style="fill:#373662; stroke:none;" d="M143 212C152.608 216.032 166.38 212.403 176 210C167.913 207.101 152.145 212 143 212z"/>
<path style="fill:#d3ce9a; stroke:none;" d="M229 209C229.899 211.124 229.876 211.101 232 212L229 209z"/>
<path style="fill:#444031; stroke:none;" d="M136 210L141 211L136 210z"/>
<path style="fill:#888358; stroke:none;" d="M236.333 210.667L236.667 211.333L236.333 210.667z"/>
<path style="fill:#444031; stroke:none;" d="M142 211C147.222 213.191 154.368 212 160 212C154.778 209.809 147.632 211 142 211z"/>
<path style="fill:#d3ce9a; stroke:none;" d="M203 211L203 213L205 213C204.455 211.365 204.635 211.545 203 211z"/>
<path style="fill:#888358; stroke:none;" d="M206.667 211.333L207.333 211.667L206.667 211.333z"/>
<path style="fill:#373662; stroke:none;" d="M232 224C227.053 220.84 221.241 215.518 230 213L230 211C218.841 212.723 222.14 225.393 232 224M238 211C241.703 220.876 231.174 225.655 226 233C232.183 230.117 248.182 217.23 238 211z"/>
<path style="fill:#444031; stroke:none;" d="M205 212C211.398 217.234 220.695 223.789 223 232L225 232C223.776 224.071 212.929 213.223 205 212z"/>
<path style="fill:#acadd2; stroke:none;" d="M32.6667 214.333L33.3333 214.667L32.6667 214.333z"/>
<path style="fill:#6f709b; stroke:none;" d="M34 214L34 228L47 228C43.3025 226.448 38.9832 227 35 227C35 222.737 35.6611 217.959 34 214z"/>
<path style="fill:#ece25e; stroke:none;" d="M86 214L84 217C88.2403 220.025 90.5903 222.647 90 228C93.245 225.709 95.7092 223.245 98 220C92.4814 220.083 89.9182 217.573 86 214z"/>
<path style="fill:#444031; stroke:none;" d="M75 220L79 215C76.4527 216.373 75.8125 217.218 75 220z"/>
<path style="fill:#ece25e; stroke:none;" d="M188 221L192 225C197.191 215.153 208.345 226.881 198 232C198.401 235.618 199.266 237.59 202 240L199 234C206.183 231.86 213.221 220.69 202.981 216.746C197.742 214.729 192.417 218.676 188 221z"/>
<path style="fill:#acadd2; stroke:none;" d="M240.333 216.667L240.667 217.333L240.333 216.667z"/>
<path style="fill:#373662; stroke:none;" d="M79 224C84.5819 220.554 88.4388 220.583 89 228C94.0888 220.364 83.419 214.643 79 224M103 220L106 219C104.751 225.569 99.7218 238.897 93 241L98 243L107.015 223.015C108.215 219.196 105.632 216.152 103 220z"/>
<path style="fill:#faed24; stroke:none;" d="M199 218C201.857 221.2 204.135 223.714 205 228L207 228C206.928 221.931 205.39 218.714 199 218z"/>
<path style="fill:#6f709b; stroke:none;" d="M96.6667 219.333L97.3333 219.667L96.6667 219.333z"/>
<path style="fill:#faed24; stroke:none;" d="M109 219C106.58 228.231 100.176 236.569 99 246L102 246C102.462 240.871 104.177 237.451 108 234C108.696 237.838 113.645 251.281 117 252C115.866 244.431 109.503 237.169 108.942 229.914L112 219L109 219z"/>
<path style="fill:#acadd2; stroke:none;" d="M264 219L264 229L267 220L264 219z"/>
<path style="fill:#d3ce9a; stroke:none;" d="M114 221L118 222C116.19 220.76 116.223 220.816 114 221z"/>
<path style="fill:#373662; stroke:none;" d="M194.423 221.032C190.832 223.693 196.609 233.367 200.725 230.914C206.416 227.522 200.012 216.891 194.423 221.032z"/>
<path style="fill:#2f3191; stroke:none;" d="M195 221C196.847 235.723 207.07 222.885 195 221z"/>
<path style="fill:#ece25e; stroke:none;" d="M107 222C103.724 229.868 98.5067 237.548 97 246C101.394 242.573 108.839 227.361 107 222z"/>
<path style="fill:#373662; stroke:none;" d="M111 230L119 229L113 228L118 223C112.745 221.011 111.245 225.531 111 230z"/>
<path style="fill:#faed24; stroke:none;" d="M186 222C187.793 227.461 198.597 244.071 204 246C202.257 238.167 194.844 222.672 186 222z"/>
<path style="fill:#acadd2; stroke:none;" d="M121 223L121 225C122.635 224.455 122.455 224.635 123 223L121 223M185 223L183 226C184.849 225.033 185.722 224.86 185 223z"/>
<path style="fill:#888358; stroke:none;" d="M208 223L208 226C208.696 224.446 208.696 224.554 208 223z"/>
<path style="fill:#373662; stroke:none;" d="M78 224C77.8833 231.81 85.7095 232.982 92 233L84 237C88.4113 238.526 91.9896 235.867 94 232C86.7582 230.275 83.0013 230.083 78 224z"/>
<path style="fill:#ece25e; stroke:none;" d="M110 224L108 231L112 224L110 224M122 224L123 227L109 232C112.655 237.932 115.396 245.231 117 252C112.174 248.884 113.708 241.533 109 238C110.869 246.073 112.915 254.353 122 256L112 233L130 228C127.565 225.567 125.382 224.612 122 224z"/>
<path style="fill:#373662; stroke:none;" d="M72 225C74.4305 230.212 78.7881 234.57 84 237C80.7201 232.344 76.6562 228.28 72 225z"/>
<path style="fill:#444031; stroke:none;" d="M121 225L121 227L123 227L123 225L121 225M185 225L189 228C187.774 225.965 187.297 225.674 185 225z"/>
<path style="fill:#888358; stroke:none;" d="M203 225L203 228C203.696 226.446 203.696 226.554 203 225z"/>
<path style="fill:#444031; stroke:none;" d="M167 226L167 232L170 227L167 226M110 227L108 232L113 231L110 227z"/>
<path style="fill:#acadd2; stroke:none;" d="M130 227L131 230L135 229L130 227z"/>
<path style="fill:#373662; stroke:none;" d="M132 227C135.71 228.666 139.949 228.916 144 229C140.397 226.539 136.243 227 132 227z"/>
<path style="fill:#ece25e; stroke:none;" d="M168 227L163 260L168 259C165.327 249.987 170.74 247.36 179 247C175.351 244.55 171.934 245.529 168 247L169 230L172 231C170.846 228.751 170.249 228.154 168 227z"/>
<path style="fill:#373662; stroke:none;" d="M170 227L175 233C173.922 229.893 172.918 228.517 170 227z"/>
<path style="fill:#ece25e; stroke:none;" d="M189 227C192.565 234.628 199.117 241.424 200 250C203.702 248.268 206.967 246.61 209 243L203 242L204 246C196.874 241.774 196.206 231.087 189 227M194 227L196 230L194 227z"/>
<path style="fill:#acadd2; stroke:none;" d="M46 228L46 241C47.5909 237.209 47.5909 231.791 46 228z"/>
<path style="fill:#888358; stroke:none;" d="M126 228L130 229L126 228M135 228L138 229L135 228z"/>
<path style="fill:#6f709b; stroke:none;" d="M256 228L264 229L256 228z"/>
<path style="fill:#373662; stroke:none;" d="M123 257L108 250C110.85 255.435 118.153 257.474 124 258C123.022 251.116 116.089 244.564 117.201 237.133C117.829 232.94 127.27 230.071 130.621 232.043C133.607 233.8 135.021 237.908 136 241C140.412 228.558 119.821 225.286 114.083 233.663C110.882 238.335 120.189 253.198 123 257z"/>
<path style="fill:#ece25e; stroke:none;" d="M132 229C137.635 238.456 141.105 249.393 144 260C153.492 254.613 154.116 238.955 163 232L154 230C157.117 238.799 148.257 248.373 146 257C142.93 252.411 133.919 233.752 139 230L132 229z"/>
<path style="fill:#acadd2; stroke:none;" d="M139 229C140.788 230.422 141.706 230.697 144 231L144 229L139 229M225 229L224 234C225.808 232.036 226.204 231.402 225 229z"/>
<path style="fill:#6f709b; stroke:none;" d="M255 229L255 234C255.83 231.97 255.83 231.03 255 229z"/>
<path style="fill:#faed24; stroke:none;" d="M136 230C137.311 238.752 141.015 249.103 145 257C148.873 251.565 140.16 238.567 141 231L136 230z"/>
<path style="fill:#888358; stroke:none;" d="M155 230L161 231L155 230z"/>
<path style="fill:#faed24; stroke:none;" d="M169 230C169.571 237.864 179.65 253.34 188 254C186.378 245.85 176.956 232.762 169 230z"/>
<path style="fill:#373662; stroke:none;" d="M141 231L140 232C141.863 238.566 143.35 246.2 147 252L149 247C144.237 244.089 142.464 236.325 143 231L141 231M154 232L149 247C152.98 243.062 155.431 237.56 156 232L154 232M166 232L160 260C165.53 256.237 168.486 238.095 166 232z"/>
<path style="fill:#888358; stroke:none;" d="M167 232L167 235C167.696 233.446 167.696 233.554 167 232M85 233L89 234L85 233z"/>
<path style="fill:#d3ce9a; stroke:none;" d="M89 235L92 233C89.9076 233.406 89.9802 233.217 89 235z"/>
<path style="fill:#888358; stroke:none;" d="M112.333 233.667L112.667 234.333L112.333 233.667M140.333 233.667L140.667 234.333L140.333 233.667z"/>
<path style="fill:#444031; stroke:none;" d="M160 233L158 238L162 233L160 233M107 234L105 240L109 240L107 234z"/>
<path style="fill:#373662; stroke:none;" d="M175 234C178.719 239.972 184.028 249.869 191 252C186.538 246.09 181.647 237.375 175 234z"/>
<path style="fill:#acadd2; stroke:none;" d="M246 234L246 242L235 242L235 249L223 249L223 258L224 250L236 250L236 243L247 243L247 235L256 235C252.837 233.673 249.414 234 246 234z"/>
<path style="fill:#ece25e; stroke:none;" d="M105 235L100 246L104 247C103.377 242.405 105.27 239.164 107 235L105 235z"/>
<path style="fill:#888358; stroke:none;" d="M169 235L169 238C169.696 236.446 169.696 236.554 169 235z"/>
<path style="fill:#444031; stroke:none;" d="M193 235L195 238L193 235z"/>
<path style="fill:#373662; stroke:none;" d="M170 236L168 247L177 245C175.05 241.579 172.947 238.617 170 236z"/>
<path style="fill:#444031; stroke:none;" d="M114 237L115 242C115.651 239.766 115.318 238.926 114 237z"/>
<path style="fill:#ece25e; stroke:none;" d="M141 237C141.43 241.924 143.004 246.497 145 251C145.914 246.647 143.334 240.71 141 237z"/>
<path style="fill:#373662; stroke:none;" d="M157 238C152.841 245.126 148.288 253.059 146 261C151.219 256.645 158.662 245.037 157 238z"/>
<path style="fill:#888358; stroke:none;" d="M166 238L166 241C166.696 239.446 166.696 239.554 166 238M137.333 239.667L137.667 240.333L137.333 239.667z"/>
<path style="fill:#373662; stroke:none;" d="M104 240C103.265 243.512 103.626 245.695 105 249L94 244C96.5358 248.456 101.106 249.57 106 250C105.73 246.589 105.401 243.121 104 240z"/>
<path style="fill:#acadd2; stroke:none;" d="M47 241C50.4324 242.44 54.2998 242 58 242C54.5676 240.56 50.7002 241 47 241z"/>
<path style="fill:#373662; stroke:none;" d="M58 241L58 250L71 250L71 256L84 256L84 265L97 265L97 271L110 271C106.303 269.448 101.983 270 98 270L98 264L85 264C84.9678 254.875 81.1987 255 73 255C72.394 247.222 65.1076 249 59 249L58 241z"/>
<path style="fill:#888358; stroke:none;" d="M168 241L168 244C168.696 242.446 168.696 242.554 168 241z"/>
<path style="fill:#d3ce9a; stroke:none;" d="M93 242C94.2292 243.87 94.8683 244.224 97 245C95.7708 243.13 95.1317 242.776 93 242z"/>
<path style="fill:#888358; stroke:none;" d="M139.333 245.667L139.667 246.333L139.333 245.667z"/>
<path style="fill:#444031; stroke:none;" d="M203 248C205.14 248.41 205.962 247.968 208 247C205.86 246.59 205.038 247.032 203 248z"/>
<path style="fill:#acadd2; stroke:none;" d="M101 247L105 249C103.686 247.382 103.123 247.307 101 247z"/>
<path style="fill:#373662; stroke:none;" d="M139 247L142 259C143.438 254.948 141.488 250.326 139 247z"/>
<path style="fill:#888358; stroke:none;" d="M173.667 247.333L174.333 247.667L173.667 247.333M112.333 248.667L112.667 249.333L112.333 248.667M169.667 248.333L170.333 248.667L169.667 248.333z"/>
<path style="fill:#acadd2; stroke:none;" d="M198 249L198 251C199.635 250.455 199.455 250.635 200 249L198 249M58 250C61.9587 251.661 66.7366 251 71 251C67.0413 249.339 62.2634 250 58 250z"/>
<path style="fill:#d3ce9a; stroke:none;" d="M109 250L114 253C112.461 250.821 111.645 250.427 109 250z"/>
<path style="fill:#888358; stroke:none;" d="M164.333 250.667L164.667 251.333L164.333 250.667M182.333 252.667L182.667 253.333L182.333 252.667z"/>
<path style="fill:#d3ce9a; stroke:none;" d="M188 252L188 254L192 254L192 252L188 252z"/>
<path style="fill:#ece25e; stroke:none;" d="M180 255L187 255C184.413 253.935 182.679 254.218 180 255z"/>
<path style="fill:#444031; stroke:none;" d="M181 256C184.602 257.289 188.33 255.757 192 255C188.326 253.567 184.689 254.963 181 256z"/>
<path style="fill:#d3ce9a; stroke:none;" d="M122 255L121 257L123 257C123 255.147 123.3 255.65 122 255z"/>
<path style="fill:#888358; stroke:none;" d="M166.333 255.667L166.667 256.333L166.333 255.667z"/>
<path style="fill:#acadd2; stroke:none;" d="M71 256C74.9587 257.661 79.7366 257 84 257C80.0413 255.339 75.2634 256 71 256z"/>
<path style="fill:#888358; stroke:none;" d="M143.333 257.667L143.667 258.333L143.333 257.667M167 257L170 258L167 257z"/>
<path style="fill:#d3ce9a; stroke:none;" d="M168.667 258.333L169.333 258.667L168.667 258.333z"/>
<path style="fill:#6f709b; stroke:none;" d="M209 258L209 266C210.161 263.23 210.161 260.77 209 258z"/>
<path style="fill:#acadd2; stroke:none;" d="M161 259C161.98 260.783 161.908 260.594 164 261L161 259z"/>
<path style="fill:#888358; stroke:none;" d="M144.667 260.333L145.333 260.667L144.667 260.333z"/>
<path style="fill:#373662; stroke:none;" d="M195 266L195 271L152 271C163.463 275.81 183.52 272 196 272L195 266z"/>
<path style="fill:#acadd2; stroke:none;" d="M196 266L196 273L197 267L210 267C205.783 265.231 200.541 266 196 266z"/>
<path style="fill:#373662; stroke:none;" d="M111 271C121.019 275.204 139.885 271 151 271C139.862 266.326 122.85 270.999 111 271z"/>
<path style="fill:#acadd2; stroke:none;" d="M123 271C130.888 274.31 143.449 272 152 272C144.112 268.69 131.551 271 123 271M152 272C159.649 275.21 171.712 273 180 273C172.351 269.79 160.288 272 152 272z"/>
<path style="fill:#6f709b; stroke:none;" d="M180 272C184.724 273.982 190.91 273 196 273C191.276 271.018 185.09 272 180 272z"/>
</svg>
